<svg width="58" height="51" viewBox="0 0 58 51" fill="none" xmlns="http://www.w3.org/2000/svg">
<path d="M11.7799 47.6671L13.3631 47.7672L13.5447 46.1913L16.0306 24.6247L23.2655 42.3105L24.8116 46.0899L26.3577 42.3105L28.9462 35.9828L31.5347 42.3105L33.0808 46.0899L34.6269 42.3105L41.9458 24.4196L44.4552 46.1913L44.6369 47.7672L46.2201 47.6671L54.1054 47.1685L55.8609 47.0575L55.6595 45.3101L50.7171 2.43141L47.5116 1.99021L43.776 11.1217L42.7026 1.80872L39.497 1.36752L28.9462 27.159L18.4793 1.57267L15.2738 2.01387L14.2003 11.3268L10.4648 2.19535L7.25924 2.63655L2.34053 45.3101L2.13912 47.0575L3.89459 47.1685L11.7799 47.6671Z" fill="#00CCFF" stroke="#00CCFF" strokeWidth="3.34091"/>
</svg>
